<?xml version="1.0" encoding="UTF-8" standalone="no"?>
<!-- Created with Inkscape (http://www.inkscape.org/) -->

<svg
   xmlns:dc="http://purl.org/dc/elements/1.1/"
   xmlns:cc="http://creativecommons.org/ns#"
   xmlns:rdf="http://www.w3.org/1999/02/22-rdf-syntax-ns#"
   xmlns:svg="http://www.w3.org/2000/svg"
   xmlns="http://www.w3.org/2000/svg"
   xmlns:sodipodi="http://sodipodi.sourceforge.net/DTD/sodipodi-0.dtd"
   xmlns:inkscape="http://www.inkscape.org/namespaces/inkscape"
   width="64px"
   height="64px"
   id="svg6610"
   version="1.1"
   inkscape:version="0.48.4 r9939"
   sodipodi:docname="noun-image.svg"
   inkscape:export-filename="C:\Users\wilkie\lotus\noun-image.png"
   inkscape:export-xdpi="32.34375"
   inkscape:export-ydpi="32.34375">
  <defs
     id="defs6612" />
  <sodipodi:namedview
     id="base"
     pagecolor="#ffffff"
     bordercolor="#666666"
     borderopacity="1.0"
     inkscape:pageopacity="0.0"
     inkscape:pageshadow="2"
     inkscape:zoom="7.7781746"
     inkscape:cx="-1.2857275"
     inkscape:cy="33.514686"
     inkscape:current-layer="layer1"
     showgrid="true"
     inkscape:document-units="px"
     inkscape:grid-bbox="true"
     inkscape:window-width="1920"
     inkscape:window-height="1058"
     inkscape:window-x="-8"
     inkscape:window-y="-8"
     inkscape:window-maximized="1" />
  <metadata
     id="metadata6615">
    <rdf:RDF>
      <cc:Work
         rdf:about="">
        <dc:format>image/svg+xml</dc:format>
        <dc:type
           rdf:resource="http://purl.org/dc/dcmitype/StillImage" />
        <dc:title></dc:title>
      </cc:Work>
    </rdf:RDF>
  </metadata>
  <g
     id="layer1"
     inkscape:label="Layer 1"
     inkscape:groupmode="layer">
    <path
       style="fill:#5599ff;fill-opacity:1;stroke:none"
       d="m 2,16.455325 0,34.5625 59.625,0 0,-34.5625 -59.625,0 z m 30,4.5625 c 7.079286,0 12.8125,5.733214 12.8125,12.8125 0,7.079286 -5.733214,12.8125 -12.8125,12.8125 -7.079286,0 -12.8125,-5.733214 -12.8125,-12.8125 0,-7.079286 5.733214,-12.8125 12.8125,-12.8125 z m 0,4.4375 c -4.633041,0 -8.375,3.741959 -8.375,8.375 0,4.633041 3.741959,8.375 8.375,8.375 4.633041,0 8.375,-3.741959 8.375,-8.375 0,-4.633041 -3.741959,-8.375 -8.375,-8.375 z"
       id="rect6618"
       inkscape:connector-curvature="0" />
    <rect
       style="fill:#5599ff;fill-opacity:1;stroke:none"
       id="rect7128"
       width="11.724596"
       height="6.281034"
       x="5.5831108"
       y="7.0724964" />
  </g>
</svg>
