<?xml version="1.0" encoding="UTF-8" standalone="no"?>
<!-- Created with Inkscape (http://www.inkscape.org/) -->

<svg
   xmlns:dc="http://purl.org/dc/elements/1.1/"
   xmlns:cc="http://creativecommons.org/ns#"
   xmlns:rdf="http://www.w3.org/1999/02/22-rdf-syntax-ns#"
   xmlns:svg="http://www.w3.org/2000/svg"
   xmlns="http://www.w3.org/2000/svg"
   xmlns:sodipodi="http://sodipodi.sourceforge.net/DTD/sodipodi-0.dtd"
   xmlns:inkscape="http://www.inkscape.org/namespaces/inkscape"
   width="64px"
   height="64px"
   id="svg5950"
   version="1.1"
   inkscape:version="0.48.4 r9939"
   sodipodi:docname="New document 14">
  <defs
     id="defs5952" />
  <sodipodi:namedview
     id="base"
     pagecolor="#ffffff"
     bordercolor="#666666"
     borderopacity="1.0"
     inkscape:pageopacity="0.0"
     inkscape:pageshadow="2"
     inkscape:zoom="5.6568542"
     inkscape:cx="18.338314"
     inkscape:cy="12.699849"
     inkscape:current-layer="layer1"
     showgrid="true"
     inkscape:document-units="px"
     inkscape:grid-bbox="true"
     inkscape:window-width="1920"
     inkscape:window-height="1058"
     inkscape:window-x="-8"
     inkscape:window-y="-8"
     inkscape:window-maximized="1" />
  <metadata
     id="metadata5955">
    <rdf:RDF>
      <cc:Work
         rdf:about="">
        <dc:format>image/svg+xml</dc:format>
        <dc:type
           rdf:resource="http://purl.org/dc/dcmitype/StillImage" />
        <dc:title></dc:title>
      </cc:Work>
    </rdf:RDF>
  </metadata>
  <g
     id="layer1"
     inkscape:label="Layer 1"
     inkscape:groupmode="layer">
    <path
       style="fill:#5599ff;fill-opacity:1;stroke:none"
       d="m 31.984375,2.171875 c -16.468127,0 -29.8125,13.375623 -29.8125,29.84375 0,16.468127 13.344373,29.8125 29.8125,29.8125 16.468127,0 29.84375,-13.344373 29.84375,-29.8125 0,-16.468127 -13.375623,-29.84375 -29.84375,-29.84375 z m 0,7.84375 c 12.150265,0 22,9.849735 22,22 0,12.150265 -9.849735,22 -22,22 -12.150265,0 -22,-9.849735 -22,-22 0,-12.150265 9.849735,-22 22,-22 z"
       id="path6506"
       inkscape:connector-curvature="0" />
    <path
       style="fill:#ffffff;fill-opacity:1;stroke:none"
       d="M 35 12.09375 C 34.528509 12.081086 34.065395 12.096686 33.59375 12.125 C 17.688757 11.896754 5.5064994 33.087678 16.21875 45.875 C 20.754401 51.96862 29.31931 52.162819 36 51.59375 C 47.628571 59.899918 65.762559 51.204853 67.6875 37.65625 L 52.0625 37.65625 C 48.785019 37.65625 46.125 35.027481 46.125 31.75 L 46.125 16.46875 C 43.068593 13.815082 39.063745 12.202902 35 12.09375 z M 33.4375 28.78125 C 37.360212 30.129022 33.567082 36.072058 30.1875 35.21875 C 26.534118 33.55238 30.823671 28.743139 33.4375 28.78125 z "
       id="path6566" />
    <path
       style="fill:#00ff00;fill-opacity:1;stroke:none"
       d="m 34.46875,18.09375 c -0.43091,-0.0052 -0.876786,0.02631 -1.3125,0.0625 -0.792755,0.06585 -1.580681,0.204866 -2.375,0.40625 -0.09418,0.02388 -0.18719,0.03673 -0.28125,0.0625 -0.123981,0.03385 -0.251292,0.08789 -0.375,0.125 -0.116185,0.03511 -0.227872,0.08701 -0.34375,0.125 -0.301496,0.09802 -0.607518,0.195117 -0.90625,0.3125 -0.238344,0.09421 -0.482768,0.174738 -0.71875,0.28125 -0.199903,0.08996 -0.3959,0.18251 -0.59375,0.28125 -0.287217,0.143775 -0.561662,0.306549 -0.84375,0.46875 -0.04041,0.02314 -0.0847,0.03898 -0.125,0.0625 -0.315803,0.185006 -0.629638,0.385687 -0.9375,0.59375 -0.443935,0.299181 -0.888726,0.621828 -1.3125,0.96875 -0.01145,0.0094 -0.01982,0.02181 -0.03125,0.03125 -0.44123,0.363046 -0.866714,0.741714 -1.28125,1.15625 -2.928932,2.928932 -4.578444,6.582721 -4.875,10.125 -0.07414,0.88557 -0.06477,1.766551 0.03125,2.625 0.04831,0.42877 0.127508,0.832882 0.21875,1.25 0.0021,0.0099 -0.0022,0.02135 0,0.03125 0.270975,1.243742 0.749109,2.41775 1.40625,3.5 0.445899,0.734353 0.967177,1.404677 1.59375,2.03125 0.619993,0.619993 1.27434,1.150669 2,1.59375 0.358112,0.220191 0.714596,0.416356 1.09375,0.59375 0.01267,0.0059 0.01856,0.02538 0.03125,0.03125 0.36771,0.170449 0.771814,0.306924 1.15625,0.4375 0.300969,0.101501 0.596608,0.172756 0.90625,0.25 0.10518,0.02665 0.206419,0.0699 0.3125,0.09375 0.01004,0.0022 0.0212,-0.0022 0.03125,0 0.07204,0.01601 0.146316,0.01653 0.21875,0.03125 1.148037,0.22878 2.35242,0.309151 3.5625,0.21875 0.244207,-0.01824 0.50491,-0.06262 0.75,-0.09375 0.195294,-0.02495 0.398212,-0.02942 0.59375,-0.0625 0.04214,-0.0071 0.08286,-0.02378 0.125,-0.03125 0.401998,-0.07159 0.786519,-0.144207 1.1875,-0.25 0.04103,-0.01075 0.08399,-0.02014 0.125,-0.03125 0.390584,-0.10664 0.800395,-0.236082 1.1875,-0.375 0.05266,-0.01887 0.103678,-0.04303 0.15625,-0.0625 0.385371,-0.14285 0.745611,-0.294022 1.125,-0.46875 0.0506,-0.02323 0.105779,-0.0387 0.15625,-0.0625 0.368574,-0.174469 0.733222,-0.389239 1.09375,-0.59375 0.01989,-0.01129 0.04263,-0.01987 0.0625,-0.03125 1.429312,5.238154 9.354848,6.100639 15.685877,3.591219 3.732097,-1.479286 6.9101,-4.130316 7.876623,-7.747469 2.917356,-10.351784 -3.622916,-18.214274 -7.625,-1.78125 -1.898157,7.046435 -15.321023,10.683176 -9.09375,-1.15625 0.05421,-0.104572 0.104511,-0.207296 0.15625,-0.3125 0.113345,-0.229498 0.210947,-0.455327 0.3125,-0.6875 0.120519,-0.276548 0.240064,-0.564222 0.34375,-0.84375 0.02274,-0.06134 0.04057,-0.126044 0.0625,-0.1875 0.136477,-0.382106 0.270041,-0.770799 0.375,-1.15625 0.0028,-0.01009 -0.0027,-0.02116 0,-0.03125 0.11554,-0.427657 0.204735,-0.852333 0.28125,-1.28125 0.03688,-0.207113 0.06599,-0.418103 0.09375,-0.625 0.0322,-0.240314 0.07392,-0.479209 0.09375,-0.71875 0.0088,-0.105687 0.02481,-0.207035 0.03125,-0.3125 0.0069,-0.1142 -0.0041,-0.229865 0,-0.34375 0.01705,-0.472308 5.89e-4,-0.941868 -0.03125,-1.40625 -0.0063,-0.09236 0.0083,-0.189296 0,-0.28125 -0.0085,-0.0934 -0.02071,-0.188305 -0.03125,-0.28125 -0.02694,-0.240911 -0.08454,-0.481295 -0.125,-0.71875 -0.03256,-0.189499 -0.05254,-0.375534 -0.09375,-0.5625 -0.03014,-0.13832 -0.05888,-0.269452 -0.09375,-0.40625 -0.02164,-0.08418 -0.03906,-0.166431 -0.0625,-0.25 -0.06538,-0.234868 -0.139141,-0.457891 -0.21875,-0.6875 -0.197852,-0.570647 -0.463712,-1.124708 -0.75,-1.65625 -0.02608,-0.04842 -0.03568,-0.108196 -0.0625,-0.15625 -0.07001,-0.124986 -0.143735,-0.252585 -0.21875,-0.375 -0.09927,-0.162578 -0.204395,-0.310966 -0.3125,-0.46875 -0.132429,-0.193129 -0.260548,-0.377019 -0.40625,-0.5625 -0.05861,-0.07458 -0.12674,-0.145469 -0.1875,-0.21875 -0.213918,-0.257678 -0.446876,-0.509376 -0.6875,-0.75 -0.268071,-0.268071 -0.554535,-0.515122 -0.84375,-0.75 -0.206668,-0.167839 -0.408462,-0.31778 -0.625,-0.46875 -0.09919,-0.06916 -0.180105,-0.153123 -0.28125,-0.21875 -0.08208,-0.05384 -0.166676,-0.104717 -0.25,-0.15625 -0.232759,-0.14212 -0.476898,-0.282178 -0.71875,-0.40625 -0.02926,-0.01523 -0.06436,-0.01628 -0.09375,-0.03125 -0.227594,-0.114286 -0.452745,-0.245243 -0.6875,-0.34375 -0.07276,-0.03053 -0.145342,-0.06473 -0.21875,-0.09375 -0.07009,-0.02811 -0.148087,-0.03577 -0.21875,-0.0625 -0.257906,-0.09613 -0.516352,-0.172163 -0.78125,-0.25 -0.02214,-0.0065 -0.04031,-0.02487 -0.0625,-0.03125 -0.244484,-0.07169 -0.500324,-0.131435 -0.75,-0.1875 -0.418782,-0.09404 -0.850456,-0.168679 -1.28125,-0.21875 -0.437971,-0.05091 -0.8655,-0.08831 -1.3125,-0.09375 z M 33.625,22.8125 c 0.288906,0.0034 0.591644,0.03086 0.875,0.0625 0.20995,0.02344 0.419128,0.05474 0.625,0.09375 0.137931,0.0267 0.270451,0.05997 0.40625,0.09375 0.209968,0.05116 0.42099,0.119493 0.625,0.1875 0.125689,0.04282 0.251878,0.07576 0.375,0.125 0.03097,0.01217 0.06295,0.01868 0.09375,0.03125 0.196099,0.08144 0.373921,0.183336 0.5625,0.28125 0.160149,0.08213 0.314625,0.15588 0.46875,0.25 0.06249,0.03826 0.126064,0.08479 0.1875,0.125 0.174976,0.114221 0.365433,0.244693 0.53125,0.375 0.02313,0.01832 0.03956,0.04387 0.0625,0.0625 0.198186,0.159786 0.379211,0.316711 0.5625,0.5 0.204785,0.204786 0.387043,0.40173 0.5625,0.625 0.0048,0.0061 -0.0048,0.02512 0,0.03125 0.169485,0.217222 0.357971,0.454922 0.5,0.6875 0.288132,0.471222 0.510482,0.977842 0.6875,1.5 0.0031,0.0092 -0.0031,0.02208 0,0.03125 0.08452,0.256819 0.192083,0.515285 0.25,0.78125 0.0022,0.0097 -0.0021,0.02155 0,0.03125 0.41082,1.921766 0.125665,4.051281 -0.8125,6.03125 -0.004,0.0086 0.0041,0.02266 0,0.03125 -0.131558,0.275846 -0.280434,0.543642 -0.4375,0.8125 -0.0047,0.0081 0.0047,0.02316 0,0.03125 -0.158136,0.269257 -0.347666,0.521052 -0.53125,0.78125 -0.0051,0.0072 0.0051,0.02404 0,0.03125 -0.374054,0.527836 -0.803377,1.053377 -1.28125,1.53125 -0.06421,0.06421 -0.122258,0.125153 -0.1875,0.1875 -0.180504,0.172494 -0.374679,0.310567 -0.5625,0.46875 -0.255709,0.215357 -0.545097,0.436333 -0.8125,0.625 -0.0547,0.0384 -0.101115,0.08772 -0.15625,0.125 -0.214232,0.145585 -0.436132,0.277658 -0.65625,0.40625 -0.05212,0.03025 -0.103834,0.06445 -0.15625,0.09375 -0.503747,0.283277 -1.007552,0.524383 -1.53125,0.71875 -0.05106,0.01885 -0.105063,0.0445 -0.15625,0.0625 -0.237253,0.08375 -0.479576,0.153345 -0.71875,0.21875 -0.04218,0.01138 -0.08278,0.02044 -0.125,0.03125 -0.250741,0.06511 -0.498701,0.1114 -0.75,0.15625 -0.04162,0.0073 -0.08338,0.02448 -0.125,0.03125 -0.124735,0.02056 -0.250433,0.01572 -0.375,0.03125 -0.422122,0.05197 -0.833936,0.09964 -1.25,0.09375 -0.309847,-0.0037 -0.634127,-0.02637 -0.9375,-0.0625 -0.08165,-0.01007 -0.168946,-0.01883 -0.25,-0.03125 -0.195482,-0.02996 -0.402253,-0.0813 -0.59375,-0.125 -0.26085,-0.05953 -0.498143,-0.133611 -0.75,-0.21875 -0.0094,-0.0031 -0.02185,0.0032 -0.03125,0 -0.09546,-0.03269 -0.187281,-0.0886 -0.28125,-0.125 -0.168847,-0.0648 -0.336381,-0.110664 -0.5,-0.1875 -0.236497,-0.111187 -0.463429,-0.238678 -0.6875,-0.375 -0.0119,-0.0073 -0.01938,-0.02391 -0.03125,-0.03125 C 26.07701,39.886069 25.844557,39.735789 25.625,39.5625 25.40173,39.387043 25.204786,39.204785 25,39 c -0.210786,-0.210786 -0.382784,-0.425915 -0.5625,-0.65625 -0.175605,-0.223348 -0.353407,-0.447756 -0.5,-0.6875 -0.288132,-0.471222 -0.510482,-0.977842 -0.6875,-1.5 -0.0031,-0.0093 0.0031,-0.0219 0,-0.03125 -0.08595,-0.256692 -0.190594,-0.515308 -0.25,-0.78125 -0.0022,-0.01 0.0021,-0.02125 0,-0.03125 -0.06057,-0.275937 -0.09277,-0.52883 -0.125,-0.8125 -0.190761,-1.708407 0.120461,-3.536867 0.9375,-5.25 0.130328,-0.276269 0.281576,-0.543204 0.4375,-0.8125 0.0044,-0.0075 -0.0044,-0.02379 0,-0.03125 0.157054,-0.269678 0.348641,-0.52063 0.53125,-0.78125 0.0046,-0.0065 -0.0046,-0.0248 0,-0.03125 0.374054,-0.527836 0.803377,-1.053377 1.28125,-1.53125 0.725576,-0.725576 1.544175,-1.327135 2.375,-1.8125 0.276942,-0.161788 0.559425,-0.302779 0.84375,-0.4375 0.137766,-0.06528 0.267127,-0.12861 0.40625,-0.1875 0.04331,-0.01823 0.08157,-0.04489 0.125,-0.0625 0.197729,-0.08064 0.394042,-0.151008 0.59375,-0.21875 0.156385,-0.05271 0.311551,-0.111459 0.46875,-0.15625 0.112903,-0.03239 0.230566,-0.03422 0.34375,-0.0625 0.217577,-0.05408 0.438344,-0.117376 0.65625,-0.15625 0.262719,-0.04689 0.519433,-0.100389 0.78125,-0.125 0.329264,-0.03148 0.64373,-0.03512 0.96875,-0.03125 z"
       id="path6490"
       inkscape:connector-curvature="0"
       sodipodi:nodetypes="ssscccccccccccsscccssccccccccscccccccccccsccccccccccccccsccccccsscccccsssccccsccccsssssccccccccccscccccccccccccssscccccccccccccsscccccccscsccccccccccssscccccccs" />
  </g>
</svg>
