<?xml version="1.0" encoding="UTF-8" standalone="no"?>
<!-- Created with Inkscape (http://www.inkscape.org/) -->

<svg
   xmlns:dc="http://purl.org/dc/elements/1.1/"
   xmlns:cc="http://creativecommons.org/ns#"
   xmlns:rdf="http://www.w3.org/1999/02/22-rdf-syntax-ns#"
   xmlns:svg="http://www.w3.org/2000/svg"
   xmlns="http://www.w3.org/2000/svg"
   xmlns:sodipodi="http://sodipodi.sourceforge.net/DTD/sodipodi-0.dtd"
   xmlns:inkscape="http://www.inkscape.org/namespaces/inkscape"
   width="64px"
   height="64px"
   id="svg5950"
   version="1.1"
   inkscape:version="0.48.4 r9939"
   sodipodi:docname="noun-mentions.svg"
   inkscape:export-filename="C:\Users\wilkie\lotus\noun-mentions.png"
   inkscape:export-xdpi="32.34375"
   inkscape:export-ydpi="32.34375">
  <defs
     id="defs5952" />
  <sodipodi:namedview
     id="base"
     pagecolor="#ffffff"
     bordercolor="#666666"
     borderopacity="1.0"
     inkscape:pageopacity="0.0"
     inkscape:pageshadow="2"
     inkscape:zoom="5.6568542"
     inkscape:cx="19.547542"
     inkscape:cy="19.551037"
     inkscape:current-layer="layer1"
     showgrid="true"
     inkscape:document-units="px"
     inkscape:grid-bbox="true"
     inkscape:window-width="1920"
     inkscape:window-height="1058"
     inkscape:window-x="-8"
     inkscape:window-y="-8"
     inkscape:window-maximized="1" />
  <metadata
     id="metadata5955">
    <rdf:RDF>
      <cc:Work
         rdf:about="">
        <dc:format>image/svg+xml</dc:format>
        <dc:type
           rdf:resource="http://purl.org/dc/dcmitype/StillImage" />
        <dc:title></dc:title>
      </cc:Work>
    </rdf:RDF>
  </metadata>
  <g
     id="layer1"
     inkscape:label="Layer 1"
     inkscape:groupmode="layer">
    <path
       style="fill:#5599ff;fill-opacity:1;stroke:none"
       d="M 32,5.1927038 C 17.191917,5.1927038 5.1927038,17.191917 5.1927038,32 5.1927038,46.808083 17.191917,58.807297 32,58.807297 c 5.55303,0 10.693914,-1.662051 14.977242,-4.552183 -4.050781,0.434276 -8.186297,-0.345111 -11.773854,-2.72569 -0.0668,0.01092 -0.129674,0.01786 -0.196699,0.0281 -0.04889,0.01339 -0.09328,0.01643 -0.140499,0.0281 -0.327117,0.08083 -0.619319,0.109019 -0.871098,0.1124 -0.665023,0.06753 -1.312249,0.0843 -1.995092,0.0843 -10.925476,0 -19.782323,-8.856847 -19.782323,-19.782323 0,-10.925476 8.856847,-19.782323 19.782323,-19.782323 10.925476,0 19.782323,8.856847 19.782323,19.782323 0,1.756511 -0.244749,3.464716 -0.674398,5.086081 -0.01411,0.05703 -0.01405,0.110903 -0.0281,0.168599 -1.706815,6.336129 -13.77661,9.606274 -8.177068,-1.039696 0.04875,-0.09403 0.09398,-0.1864 0.1405,-0.280999 0.101919,-0.206364 0.189683,-0.409428 0.280998,-0.618198 0.108371,-0.248671 0.215865,-0.507347 0.3091,-0.758698 0.02045,-0.05516 0.03647,-0.113337 0.05619,-0.168598 0.122719,-0.343589 0.24282,-0.6931 0.337198,-1.039696 0.0025,-0.009 -0.0025,-0.01903 0,-0.0281 0.103894,-0.384547 0.184097,-0.766415 0.252899,-1.152095 0.03316,-0.186235 0.05933,-0.375958 0.08429,-0.561998 0.02895,-0.21609 0.06647,-0.430903 0.0843,-0.646298 0.0079,-0.09504 0.02231,-0.186164 0.0281,-0.280999 0.0063,-0.102688 -0.0037,-0.206694 0,-0.309098 0.01534,-0.424698 5.29e-4,-0.846924 -0.0281,-1.264496 -0.0056,-0.08305 0.0074,-0.170214 0,-0.252899 -0.0077,-0.08399 -0.01862,-0.169323 -0.0281,-0.252899 -0.02423,-0.216626 -0.07601,-0.432778 -0.1124,-0.646297 -0.02927,-0.170397 -0.04725,-0.337678 -0.08429,-0.505798 -0.02711,-0.124377 -0.05295,-0.24229 -0.0843,-0.365298 -0.01946,-0.07569 -0.03512,-0.149655 -0.05619,-0.2248 -0.05879,-0.211193 -0.125116,-0.411733 -0.1967,-0.618197 -0.177907,-0.513123 -0.416968,-1.011334 -0.674397,-1.489295 -0.02345,-0.04354 -0.03209,-0.09729 -0.05619,-0.140499 -0.06296,-0.112387 -0.129246,-0.227123 -0.196699,-0.337199 -0.08927,-0.14619 -0.183791,-0.279619 -0.280999,-0.421498 -0.119079,-0.17366 -0.234283,-0.339014 -0.365299,-0.505798 -0.0527,-0.06707 -0.113964,-0.130806 -0.168599,-0.1967 -0.192354,-0.231702 -0.401829,-0.458028 -0.618197,-0.674397 -0.241049,-0.241048 -0.498636,-0.463195 -0.758698,-0.674397 -0.185835,-0.15092 -0.367287,-0.285747 -0.561998,-0.421498 -0.08919,-0.06219 -0.161949,-0.137688 -0.252899,-0.1967 -0.07381,-0.04841 -0.149874,-0.09416 -0.224798,-0.140499 -0.209297,-0.127794 -0.428826,-0.253734 -0.646298,-0.365298 -0.0263,-0.01369 -0.05788,-0.01465 -0.0843,-0.0281 -0.204652,-0.102765 -0.407106,-0.22052 -0.618197,-0.309098 -0.06543,-0.02745 -0.130691,-0.05821 -0.1967,-0.0843 -0.06302,-0.02528 -0.133159,-0.03216 -0.196699,-0.05619 -0.231908,-0.08644 -0.464301,-0.154808 -0.702498,-0.224798 -0.01991,-0.0059 -0.03625,-0.02236 -0.05619,-0.0281 -0.21984,-0.06447 -0.44989,-0.118186 -0.674397,-0.168599 -0.376568,-0.08456 -0.764728,-0.151676 -1.152096,-0.196699 -0.393822,-0.04578 -0.778255,-0.07942 -1.180196,-0.08429 -0.387472,-0.0046 -0.788403,0.02365 -1.180195,0.05619 -0.712842,0.05921 -1.421343,0.184216 -2.135592,0.365298 -0.08468,0.02148 -0.168321,0.03302 -0.252899,0.05619 -0.111483,0.03043 -0.225961,0.07903 -0.337198,0.1124 -0.104474,0.03157 -0.204903,0.07823 -0.309099,0.112399 -0.271105,0.08815 -0.546279,0.175449 -0.814897,0.281 -0.214318,0.08471 -0.434104,0.157122 -0.646298,0.252898 -0.179752,0.08089 -0.355991,0.164113 -0.533898,0.252899 -0.258264,0.129282 -0.505044,0.275647 -0.758697,0.421499 -0.03634,0.02081 -0.07616,0.03505 -0.1124,0.05619 -0.283968,0.166356 -0.566168,0.346809 -0.842996,0.533898 -0.399185,0.269022 -0.79914,0.559145 -1.180195,0.871096 -0.0103,0.0084 -0.01782,0.01962 -0.0281,0.0281 -0.396753,0.32645 -0.779346,0.666947 -1.152096,1.039697 -2.633685,2.633685 -4.116921,5.91916 -4.383582,9.104365 -0.06667,0.7963 -0.05825,1.588476 0.0281,2.360391 0.04344,0.385548 0.114655,0.748924 0.196699,1.123995 0.0018,0.0089 -0.002,0.01921 0,0.0281 0.243659,1.118369 0.673596,2.174033 1.264495,3.147188 0.400951,0.660328 0.869683,1.263081 1.433095,1.826493 0.557495,0.557495 1.145882,1.034677 1.798394,1.433094 0.322012,0.197996 0.642561,0.374387 0.983495,0.533898 0.0114,0.0052 0.01669,0.02282 0.0281,0.0281 0.330644,0.153267 0.694013,0.275985 1.039696,0.393398 0.27063,0.09127 0.536469,0.155343 0.814897,0.2248 0.09458,0.02396 0.185611,0.06285 0.280999,0.08429 0.009,0.002 0.01906,-0.002 0.0281,0 0.06478,0.01439 0.131567,0.01486 0.1967,0.0281 1.032311,0.205718 2.115288,0.277987 3.203388,0.196699 0.219589,-0.0164 0.454013,-0.0563 0.674397,-0.08429 0.175607,-0.02244 0.358071,-0.02646 0.533898,-0.05619 0.03789,-0.0064 0.0745,-0.02138 0.112399,-0.0281 0.361475,-0.06437 0.707235,-0.129669 1.067796,-0.224799 0.03689,-0.0097 0.07552,-0.01811 0.1124,-0.0281 0.351211,-0.09589 0.719712,-0.212283 1.067796,-0.337198 0.04736,-0.01697 0.09323,-0.0387 0.140499,-0.05619 0.346524,-0.128449 0.670451,-0.264383 1.011596,-0.421498 0.0455,-0.02088 0.09512,-0.0348 0.1405,-0.05619 0.33142,-0.156882 0.659311,-0.350002 0.983496,-0.533897 0.01789,-0.01017 0.03833,-0.01786 0.05619,-0.0281 1.285232,4.71013 8.413306,5.487949 14.106146,3.231488 3.355888,-1.330169 6.212078,-3.716242 7.081173,-6.968773 0.169503,-0.601455 0.291997,-1.19282 0.393397,-1.770293 0.02203,-0.125468 0.03722,-0.241268 0.05619,-0.3653 C 58.656415,35.191243 58.807297,33.605034 58.807297,32 58.807297,17.191917 46.808083,5.1927038 32,5.1927038 z m 1.461195,18.5459292 c 0.259783,0.003 0.532003,0.02775 0.786796,0.05619 0.188787,0.02108 0.376878,0.04922 0.561998,0.08429 0.124028,0.02401 0.243189,0.05392 0.365299,0.08429 0.188802,0.046 0.378552,0.107447 0.561998,0.168599 0.113019,0.03851 0.226488,0.06812 0.337198,0.112399 0.02786,0.01095 0.0566,0.0168 0.08429,0.0281 0.176332,0.07323 0.336229,0.164854 0.505797,0.252898 0.144007,0.07385 0.28291,0.140167 0.421499,0.224799 0.05619,0.03441 0.113356,0.07624 0.1686,0.1124 0.157338,0.102709 0.328596,0.220027 0.477698,0.337199 0.0208,0.01647 0.03557,0.03945 0.05619,0.05619 0.17821,0.143679 0.340986,0.284785 0.505799,0.449598 0.184142,0.184143 0.348028,0.361234 0.505799,0.561998 0.0043,0.0055 -0.0043,0.02259 0,0.0281 0.152399,0.195325 0.321885,0.409065 0.449598,0.618198 0.259087,0.42372 0.459023,0.879272 0.618197,1.348794 0.0028,0.0083 -0.0028,0.01985 0,0.0281 0.07601,0.230931 0.17272,0.463342 0.224799,0.702498 0.002,0.0087 -0.0018,0.01937 0,0.0281 0.369408,1.728044 0.112997,3.642898 -0.730597,5.423279 -0.0036,0.0078 0.0037,0.02038 0,0.0281 -0.118296,0.24804 -0.252166,0.488841 -0.393398,0.730597 -0.0042,0.0073 0.0042,0.02083 0,0.0281 -0.142196,0.242115 -0.31262,0.468527 -0.477699,0.702498 -0.0046,0.0065 0.0046,0.02162 0,0.0281 -0.336348,0.474628 -0.722394,0.947192 -1.152095,1.376895 -0.05774,0.05773 -0.109935,0.112536 -0.168599,0.168598 -0.162309,0.155106 -0.336911,0.279261 -0.505799,0.421499 -0.229933,0.193648 -0.490149,0.392349 -0.730596,0.561998 -0.04919,0.03453 -0.09092,0.07888 -0.1405,0.112399 -0.192636,0.13091 -0.392168,0.24967 -0.590097,0.3653 -0.04687,0.0272 -0.09336,0.05795 -0.1405,0.08429 -0.452968,0.254721 -0.905987,0.471524 -1.376895,0.646297 -0.04591,0.01695 -0.09447,0.04002 -0.140499,0.05619 -0.213337,0.07531 -0.431233,0.137887 -0.646298,0.196698 -0.03793,0.01027 -0.07444,0.01839 -0.1124,0.0281 -0.225465,0.05854 -0.44843,0.100172 -0.674398,0.1405 -0.03743,0.0066 -0.07498,0.02202 -0.112398,0.0281 -0.112162,0.01849 -0.225189,0.01413 -0.337199,0.0281 -0.379571,0.04673 -0.749872,0.08959 -1.123996,0.0843 -0.278613,-0.0034 -0.570204,-0.02371 -0.842996,-0.05619 -0.07342,-0.009 -0.151916,-0.01693 -0.2248,-0.0281 -0.175776,-0.02694 -0.361704,-0.0731 -0.533897,-0.112398 -0.234555,-0.05353 -0.44793,-0.120144 -0.674398,-0.1967 -0.0084,-0.0028 -0.01965,0.0029 -0.0281,0 -0.08584,-0.0294 -0.168402,-0.07967 -0.252899,-0.1124 -0.151827,-0.05827 -0.302473,-0.0995 -0.449599,-0.168599 -0.212657,-0.09998 -0.416713,-0.214618 -0.618198,-0.337198 -0.01069,-0.0066 -0.01742,-0.0215 -0.0281,-0.0281 -0.211752,-0.130546 -0.420773,-0.265677 -0.618198,-0.421499 -0.200762,-0.15777 -0.377854,-0.321656 -0.561997,-0.505797 -0.189538,-0.189539 -0.344199,-0.382981 -0.505798,-0.590098 -0.157903,-0.200834 -0.317783,-0.402621 -0.449599,-0.618198 -0.259087,-0.423721 -0.459022,-0.879272 -0.618197,-1.348795 -0.0028,-0.0084 0.0028,-0.01969 0,-0.0281 -0.07729,-0.230816 -0.171382,-0.463363 -0.2248,-0.702497 -0.002,-0.009 0.0018,-0.0191 0,-0.0281 -0.05446,-0.248121 -0.08342,-0.475521 -0.112398,-0.730597 -0.171532,-1.536193 0.108318,-3.180338 0.842996,-4.720781 0.11719,-0.24842 0.253192,-0.488447 0.393398,-0.730598 0.004,-0.0068 -0.004,-0.02139 0,-0.0281 0.141223,-0.242494 0.313497,-0.468149 0.477699,-0.702498 0.0041,-0.0059 -0.0041,-0.0223 0,-0.0281 0.336348,-0.474629 0.722393,-0.947193 1.152095,-1.376895 0.652436,-0.652435 1.388517,-1.193356 2.135592,-1.629794 0.249025,-0.145478 0.503032,-0.272257 0.758697,-0.393398 0.123879,-0.0587 0.2402,-0.115645 0.365298,-0.1686 0.03895,-0.01639 0.07335,-0.04037 0.1124,-0.05619 0.177797,-0.07251 0.35432,-0.135787 0.533898,-0.196699 0.14062,-0.0474 0.280145,-0.100224 0.421498,-0.140499 0.101518,-0.02913 0.207324,-0.03077 0.309099,-0.05619 0.195644,-0.04863 0.394157,-0.105544 0.590098,-0.1405 0.236235,-0.04216 0.467072,-0.09027 0.702497,-0.112399 0.296073,-0.02831 0.57884,-0.03158 0.871096,-0.0281 z"
       id="path6506"
       inkscape:connector-curvature="0"
       inkscape:export-xdpi="32.34375"
       inkscape:export-ydpi="32.34375" />
  </g>
</svg>
